<?xml version="1.0" encoding="utf-8"?>
<!-- Generator: Adobe Illustrator 21.0.2, SVG Export Plug-In . SVG Version: 6.00 Build 0)  -->
<svg version="1.1" id="Ebene_1" xmlns="http://www.w3.org/2000/svg" xmlns:xlink="http://www.w3.org/1999/xlink" x="0px" y="0px"
	 viewBox="0 0 497.5 84.5" style="enable-background:new 0 0 497.5 84.5;" xml:space="preserve">
<style type="text/css">
	.st0{fill:#EB5943;}
	.st1{fill:#444444;}
</style>
<g>
	<path class="st0" d="M103,1.3c-4.7-2.6-10.5-1.1-13.1,3.5L79.7,22.7C72.6,9.2,58.5,0,42.2,0C18.9,0,0,18.9,0,42.2
		c0,23.3,18.9,42.2,42.2,42.2c15.5,0,29-8.3,36.4-20.8l0,0l28.1-49.3C109.4,9.8,107.7,4,103,1.3z M42.2,65.1
		c-12.6,0-22.8-10.2-22.8-22.8c0-12.6,10.2-22.8,22.8-22.8C54.8,19.4,65,29.6,65,42.2C65,54.8,54.8,65.1,42.2,65.1z"/>
	<circle class="st0" cx="98.3" cy="74.8" r="9.7"/>
</g>
<g>
	<path class="st1" d="M162.9,49.3h-18l-5.3,15.6h-3.2l16.1-45.5h3.2l16,45.5h-3.4L162.9,49.3z M162,46.7l-2.9-8.5
		c-1.8-5.4-3.5-10.1-5-15.7h-0.3c-1.6,5.6-3.2,10.4-5,15.7l-2.9,8.5H162z"/>
	<path class="st1" d="M179.4,19.5h3.2v42.7h20.9v2.8h-24.1V19.5z"/>
	<path class="st1" d="M212.1,19.5h12.4c10.1,0,16.2,3.3,16.2,12.7c0,8.9-6.1,13.3-16.2,13.3h-9.3v19.5h-3.2V19.5z M223.7,42.7
		c9.3,0,13.7-3.1,13.7-10.6c0-7.7-4.5-10-13.7-10h-8.4v20.6H223.7z"/>
	<path class="st1" d="M251.2,19.5h3.2v20h24.3v-20h3.2v45.5h-3.2V42.2h-24.3v22.8h-3.2V19.5z"/>
	<path class="st1" d="M316.2,49.3h-18l-5.3,15.6h-3.2l16.1-45.5h3.2l16,45.5h-3.4L316.2,49.3z M315.3,46.7l-2.9-8.5
		c-1.8-5.4-3.5-10.1-5-15.7h-0.3c-1.6,5.6-3.2,10.4-5,15.7l-2.9,8.5H315.3z"/>
	<path class="st1" d="M333.3,54c1.9,3.3,4.3,4.8,7,4.8c4.2,0,6.4-2.3,6.4-8.7V19.8h8v31c0,8.2-4.1,15-13.5,15
		c-6.4,0-10.6-2.6-13.5-7.7L333.3,54z"/>
	<path class="st1" d="M366.6,19.8h8v26c0,9.8,3.7,13,9.2,13c5.5,0,9.3-3.2,9.3-13v-26h7.7v25.3c0,14.8-6.6,20.6-17.1,20.6
		c-10.5,0-17.2-5.8-17.2-20.6V19.8z"/>
	<path class="st1" d="M412.9,19.8h8.8l8.1,22.2l3,8.6h0.3l3-8.6l7.9-22.2h8.8v45.1h-7.5V44.3c0-4.2,0.6-10.2,1-14.4H446l-3.7,10.3
		l-7.8,20.5h-3.7l-7.8-20.5L419.5,30h-0.3c0.3,4.1,1,10.1,1,14.4v20.6h-7.3V19.8z"/>
	<path class="st1" d="M465.1,19.8h15.2c9.9,0,17.1,3.5,17.1,13.9c0,10-7.5,14.6-17.1,14.6h-7.2v16.6h-8V19.8z M479.6,42
		c6.8,0,9.9-2.7,9.9-8.2c0-5.7-3.4-7.5-9.9-7.5h-6.5V42H479.6z"/>
</g>
</svg>
