<?xml version="1.0" encoding="utf-8"?>
<!-- Generator: Adobe Illustrator 21.0.2, SVG Export Plug-In . SVG Version: 6.00 Build 0)  -->
<svg version="1.1" id="Ebene_1" xmlns="http://www.w3.org/2000/svg" xmlns:xlink="http://www.w3.org/1999/xlink" x="0px" y="0px"
	 viewBox="0 0 110 84.5" style="enable-background:new 0 0 110 84.5;" xml:space="preserve">
<style type="text/css">
	.st0{fill:#EB5943;}
	.st1{fill:#444444;}
</style>
<g>
	<path class="st0" d="M103,1.3c-4.7-2.6-10.5-1.1-13.1,3.5L79.7,22.7C72.6,9.2,58.5,0,42.2,0C18.9,0,0,18.9,0,42.2
		c0,23.3,18.9,42.2,42.2,42.2c15.5,0,29-8.3,36.4-20.8l0,0l28.1-49.3C109.4,9.8,107.7,4,103,1.3z M42.2,65.1
		c-12.6,0-22.8-10.2-22.8-22.8c0-12.6,10.2-22.8,22.8-22.8C54.8,19.4,65,29.6,65,42.2C65,54.8,54.8,65.1,42.2,65.1z"/>
	<circle class="st0" cx="98.3" cy="74.8" r="9.7"/>
</g>
</svg>
